<svg xmlns="http://www.w3.org/2000/svg" viewBox="0 0 546.8 180.01"><defs><style>.cls-1{fill:#1a1a1a;}.cls-2{fill:#e63946;}</style></defs><g id="Layer_2" data-name="Layer 2"><g id="logos"><path class="cls-1" d="M10,69.79H39.21C57.9,69.79,73,76.47,73,97.11c0,20-15.24,28.8-33.24,28.8H29.23v28.82H10Zm28.56,40.87c10.56,0,15.56-4.71,15.56-13.55S48.46,85,38.07,85H29.23v25.63Z" transform="translate(-10.03)"/><path class="cls-1" d="M84.61,70.6c0-5.88,4.67-10,11.09-10s11.09,4.14,11.09,10-4.66,10-11.09,10S84.61,76.43,84.61,70.6ZM86.1,90.07h19.16v64.66H86.1Z" transform="translate(-10.03)"/><path class="cls-1" d="M118.31,122.42c0-21.5,15.83-33.91,33.69-33.91a28.06,28.06,0,0,1,18.89,7l-9,12.31c-3.1-2.62-5.69-3.81-8.77-3.81-9.21,0-15.12,7.26-15.12,18.45s6.16,18.41,14.48,18.41c4.25,0,8.31-2.1,11.66-4.77l7.5,12.53a32.28,32.28,0,0,1-21.31,7.7C132.23,156.29,118.31,143.87,118.31,122.42Z" transform="translate(-10.03)"/><path class="cls-1" d="M182.93,63.42h18.72v52.31h.48l20.51-25.66h20.8l-22.65,26.65,24.36,38H224.4l-14.55-25.22-8.2,9.3v15.92H182.93Z" transform="translate(-10.03)"/><path class="cls-1" d="M252.38,178.71l3.41-14.61a19.17,19.17,0,0,0,4.35.83c6.32,0,9.64-3.48,11.31-8.49l1-3.37-25-63h19.25L276,117.89c1.87,5.86,3.4,12,5.1,18.32h.52c1.44-6.12,2.88-12.25,4.49-18.32l7.85-27.82h18.34l-22.44,65.36c-6.14,16.19-13,24.58-28.23,24.58A29.82,29.82,0,0,1,252.38,178.71Z" transform="translate(-10.03)"/><path class="cls-1" d="M315.57,69.79h19.68l5.88,39.67c1.12,9,2.35,17.91,3.47,26.86h.52c1.65-8.95,3.35-18,5.06-26.86l9.13-39.67H375.6l9.14,39.67c1.7,8.63,3.4,17.8,5.1,26.86h.52c1.12-9.06,2.3-18.12,3.42-26.86l5.89-39.67H418l-15.09,84.94H378.78l-8.3-38.58c-1.35-6.57-2.49-13.37-3.41-19.72h-.52c-1,6.35-2.1,13.15-3.45,19.72l-8,38.58H331.34Z" transform="translate(-10.03)"/><path class="cls-1" d="M424.43,122.42c0-21,15-33.91,30.5-33.91,18.41,0,27.54,13.38,27.54,31a43,43,0,0,1-.8,8.46H443c1.72,9.38,8.14,13.69,16.77,13.69,4.89,0,9.29-1.49,14-4.23L480.08,149a42.15,42.15,0,0,1-22.94,7.28C438.71,156.29,424.43,143.83,424.43,122.42Zm41.67-7.08c0-7.11-3.09-12.23-10.74-12.23-6.06,0-11.28,4.06-12.59,12.23Z" transform="translate(-10.03)"/><path class="cls-1" d="M512.75,147.83h-.48l-1.59,6.9h-15V63.42h19.16V85.73l-.48,9.93c4.91-4.4,11-7.15,17.11-7.15,15.66,0,25.35,12.94,25.35,32.76,0,22.29-13.21,35-27.2,35C523.85,156.29,517.88,153.38,512.75,147.83Zm24.44-26.24c0-11.6-3.58-17.41-11.23-17.41-3.94,0-7.37,1.76-11.11,5.79v26.55a15.31,15.31,0,0,0,10.31,4.09C531.84,140.61,537.19,135,537.19,121.59Z" transform="translate(-10.03)"/><path class="cls-2" d="M477.34,0,474,73.12S497.31,45,531.1,49.46Z" transform="translate(-10.03)"/></g></g></svg>